<?xml version="1.0" encoding="UTF-8"?>
<svg width="512" height="512" viewBox="0 0 512 512" fill="none" xmlns="http://www.w3.org/2000/svg">
    <rect width="512" height="512" rx="50" fill="#3178C6"/>
    <path d="M317.219 354.848V380.066C325.831 384.838 335.452 388.436 346.081 390.858C356.71 393.281 367.837 394.492 379.462 394.492C390.766 394.492 401.152 393.239 410.62 390.732C420.088 388.225 428.195 384.375 434.941 379.182C441.688 373.989 446.922 367.453 450.644 359.575C454.366 351.696 456.227 342.375 456.227 331.61C456.227 324.171 455.184 317.55 453.098 311.747C451.012 305.944 447.922 300.666 443.829 295.914C439.736 291.162 434.756 286.831 428.889 282.92C423.022 279.009 416.317 275.287 408.775 271.755C402.908 269.038 397.673 266.447 393.072 263.983C388.47 261.519 384.587 259.097 381.422 256.716C378.257 254.336 375.809 251.913 374.08 249.449C372.35 246.985 371.485 244.311 371.485 241.426C371.485 238.835 372.182 236.456 373.575 234.287C374.969 232.118 376.91 230.233 379.399 228.632C381.889 227.031 384.88 225.767 388.374 224.841C391.867 223.914 395.757 223.451 400.043 223.451C403.208 223.451 406.499 223.746 409.916 224.335C413.334 224.925 416.772 225.767 420.231 226.862C423.69 227.957 427.107 229.305 430.483 230.906C433.858 232.507 437.055 234.287 440.073 236.246V212.644C432.089 209.338 423.974 206.917 415.727 205.38C407.48 203.843 398.274 203.075 388.111 203.075C376.933 203.075 366.747 204.412 357.553 207.087C348.359 209.762 340.421 213.673 333.738 218.824C327.055 223.974 321.821 230.254 318.037 237.667C314.252 245.079 312.36 253.505 312.36 262.945C312.36 275.035 315.61 285.619 322.109 294.693C328.608 303.768 338.786 311.831 352.643 318.88C358.763 321.892 364.399 324.736 369.549 327.41C374.7 330.085 379.157 332.801 382.922 335.561C386.686 338.32 389.662 341.247 391.849 344.342C394.036 347.438 395.13 350.87 395.13 354.637C395.13 357.039 394.497 359.271 393.23 361.335C391.964 363.398 390.149 365.167 387.784 366.642C385.42 368.117 382.554 369.254 379.188 370.054C375.823 370.854 372.016 371.254 367.768 371.254C359.585 371.254 351.412 369.717 343.248 366.642C335.084 363.567 327.267 359.06 319.796 353.121L317.219 354.848ZM233.899 222.146H287.669V203.075H155.459V222.146H209.019V393.187H233.899V222.146Z" fill="white"/>
</svg> 