{
	"asset":{
		"generator":"Khronos glTF Blender I/O v3.5.30",
		"version":"2.0"
	},
	"scene":0,
	"scenes":[
		{
			"name":"Scene",
			"nodes":[
				0
			]
		}
	],
	"nodes":[
		{
			"mesh":0,
			"name":"Cylinder",
			"rotation":[
				-0.7071068286895752,
				0,
				0,
				0.7071068286895752
			],
			"translation":[
				0,
				1.3254914283752441,
				0
			]
		}
	],
	"materials":[
		{
			"doubleSided":true,
			"name":"Material",
			"pbrMetallicRoughness":{
				"baseColorFactor":[
					0,
					0,
					0,
					1
				],
				"metallicFactor":0
			}
		},
		{
			"doubleSided":true,
			"name":"Material.001",
			"pbrMetallicRoughness":{
				"baseColorFactor":[
					1,
					0.7589969038963318,
					0.5691192150115967,
					1
				],
				"metallicFactor":0
			}
		}
	],
	"meshes":[
		{
			"name":"Cylinder",
			"primitives":[
				{
					"attributes":{
						"POSITION":0,
						"TEXCOORD_0":1,
						"NORMAL":2
					},
					"indices":3,
					"material":0
				},
				{
					"attributes":{
						"POSITION":4,
						"TEXCOORD_0":5,
						"NORMAL":6
					},
					"indices":7,
					"material":1
				}
			]
		}
	],
	"accessors":[
		{
			"bufferView":0,
			"componentType":5126,
			"count":68248,
			"max":[
				0.7636944651603699,
				3.4901106357574463,
				0.7570333480834961
			],
			"min":[
				-0.7636944055557251,
				-3.156944751739502,
				-1.3999587297439575
			],
			"type":"VEC3"
		},
		{
			"bufferView":1,
			"componentType":5126,
			"count":68248,
			"type":"VEC2"
		},
		{
			"bufferView":2,
			"componentType":5126,
			"count":68248,
			"type":"VEC3"
		},
		{
			"bufferView":3,
			"componentType":5125,
			"count":120960,
			"type":"SCALAR"
		},
		{
			"bufferView":4,
			"componentType":5126,
			"count":5531,
			"max":[
				1.043175220489502,
				3.4856464862823486,
				0.9557490348815918
			],
			"min":[
				-1.0431749820709229,
				-2.7325222492218018,
				-1.0597559213638306
			],
			"type":"VEC3"
		},
		{
			"bufferView":5,
			"componentType":5126,
			"count":5531,
			"type":"VEC2"
		},
		{
			"bufferView":6,
			"componentType":5126,
			"count":5531,
			"type":"VEC3"
		},
		{
			"bufferView":7,
			"componentType":5123,
			"count":31152,
			"type":"SCALAR"
		}
	],
	"bufferViews":[
		{
			"buffer":0,
			"byteLength":818976,
			"byteOffset":0,
			"target":34962
		},
		{
			"buffer":0,
			"byteLength":545984,
			"byteOffset":818976,
			"target":34962
		},
		{
			"buffer":0,
			"byteLength":818976,
			"byteOffset":1364960,
			"target":34962
		},
		{
			"buffer":0,
			"byteLength":483840,
			"byteOffset":2183936,
			"target":34963
		},
		{
			"buffer":0,
			"byteLength":66372,
			"byteOffset":2667776,
			"target":34962
		},
		{
			"buffer":0,
			"byteLength":44248,
			"byteOffset":2734148,
			"target":34962
		},
		{
			"buffer":0,
			"byteLength":66372,
			"byteOffset":2778396,
			"target":34962
		},
		{
			"buffer":0,
			"byteLength":62304,
			"byteOffset":2844768,
			"target":34963
		}
	],
	"buffers":[
		{
			"byteLength":2907072,
			"uri":"data:application/octet-stream;base64,"
		}
	]
}
