<?xml version="1.0" encoding="iso-8859-1"?>
<!-- Generator: Adobe Illustrator 19.0.0, SVG Export Plug-In . SVG Version: 6.00 Build 0)  -->
<svg version="1.1" id="Layer_1" xmlns="http://www.w3.org/2000/svg" xmlns:xlink="http://www.w3.org/1999/xlink" x="0px" y="0px"
	 viewBox="0 0 496.159 496.159" style="enable-background:new 0 0 496.159 496.159;" xml:space="preserve">
<path style="fill:#334D5C;" d="M248.083,0.003C111.071,0.003,0,111.063,0,248.085c0,137.001,111.07,248.07,248.083,248.07
	c137.006,0,248.076-111.069,248.076-248.07C496.159,111.062,385.089,0.003,248.083,0.003z"/>
<circle style="fill:#E2A120;" cx="248.08" cy="248.079" r="116"/>
<g>
	<path style="fill:#EAB32A;" d="M339.477,176.643c-26.807,0.076-57.367,5.651-94.483-8.428c-24.666-9.356-51.739-10.512-70.561-9.76
		c-6.487,5.336-12.385,11.363-17.581,17.968c22.914,1.373,52.831,5.41,71.643,17.291c20.399,12.884,87.67,8.092,124.264,4.327
		C349.104,190.41,344.641,183.24,339.477,176.643z"/>
	<path style="fill:#EAB32A;" d="M322.082,325.264c-30.104-1.633-64.089,10.426-108.292-4.079
		c-20.987-6.886-43.397-7.952-61.153-7.173c6.497,9.387,14.341,17.77,23.256,24.867c8.29,2.048,16.047,4.811,22.575,8.53
		c18.102,10.312,70.511,5.869,107.911,0.971c10.013-5.833,19.071-13.122,26.888-21.577
		C330.226,326.054,326.552,325.506,322.082,325.264z"/>
	<path style="fill:#EAB32A;" d="M364.031,244.794c-28.548-5.187-67.834-10.025-105.061-6.911
		c-49.173,4.115-89.199-4.33-124.902-11.254c-1.3,6.952-1.987,14.12-1.987,21.449c0,0.953,0.013,1.902,0.036,2.85
		c54.909,11.651,122.072,23.294,147.983,17.13c22.642-5.387,53.729-4.984,82.692-2.663c0.846-5.649,1.288-11.431,1.288-17.316
		C364.08,246.98,364.061,245.886,364.031,244.794z"/>
</g>
<path style="fill:#A8843B;" d="M351.58,195.653c5.187,10.219,8.9,21.311,10.871,32.995c18.955,5.56,30.25,12.537,30.25,20.116
	c0,7.612-11.393,14.616-30.498,20.188c-6.948,2.026-14.907,3.865-23.722,5.472c-24.762,4.514-56.191,7.215-90.401,7.216
	c-34.21,0-65.639-2.702-90.401-7.216c-8.814-1.607-16.774-3.446-23.722-5.472c-19.104-5.572-30.498-12.576-30.498-20.188
	c0-7.579,11.294-14.556,30.25-20.116c1.971-11.684,5.684-22.775,10.871-32.995c-67.625,10.1-113.53,29.79-113.53,52.426
	c0,22.636,45.905,42.326,113.531,52.426c30.764,4.595,66.022,7.205,103.5,7.205s72.736-2.61,103.5-7.205
	c67.626-10.1,113.531-29.79,113.531-52.426S419.206,205.753,351.58,195.653z"/>
<path style="fill:#BC934B;" d="M356.459,204.026c1.047,2.742,1.994,5.532,2.834,8.369c33.653,8.348,54.816,20.425,54.816,33.863
	c0,17.317-37.003,30.468-88.738,38.194c-23.535,3.515-50.508,5.512-79.178,5.512s-55.644-1.997-79.178-5.512
	c-51.734-7.727-84.966-20.877-84.966-38.194c0-13.438,21.164-25.515,54.816-33.863c0.84-2.837,1.788-5.628,2.834-8.37
	c-47.602,9.315-90.516,24.603-90.516,41.884c0,19.507,51.424,39.923,109.702,48.627c26.511,3.96,56.896,6.209,89.193,6.209
	s62.682-2.25,89.193-6.209c58.278-8.704,109.702-29.12,109.702-48.627C446.975,228.629,404.062,213.342,356.459,204.026z"/>
<g>
	<path style="fill:#EAB32A;" d="M360.296,218.604c-23.188,2.375-127.988,10.581-215.255-23.846
		c-1.127,2.173-2.184,4.387-3.175,6.637c23.197,8.424,103.846,33.543,220.114,24.646
		C361.497,223.533,360.938,221.052,360.296,218.604z"/>
	<path style="fill:#EAB32A;" d="M314.706,153.118c-29.603-1.175-67.295-4.851-105.314-14.421c-3.222,1.14-6.38,2.414-9.465,3.823
		c30.493,7.968,72.546,15.825,123.914,17.718C320.921,157.717,317.871,155.341,314.706,153.118z"/>
</g>
<g>
</g>
<g>
</g>
<g>
</g>
<g>
</g>
<g>
</g>
<g>
</g>
<g>
</g>
<g>
</g>
<g>
</g>
<g>
</g>
<g>
</g>
<g>
</g>
<g>
</g>
<g>
</g>
<g>
</g>
</svg>
