<?xml version="1.0" encoding="iso-8859-1"?>
<!-- Generator: Adobe Illustrator 18.1.1, SVG Export Plug-In . SVG Version: 6.00 Build 0)  -->
<svg version="1.1" id="Capa_1" xmlns="http://www.w3.org/2000/svg" xmlns:xlink="http://www.w3.org/1999/xlink" x="0px" y="0px"
	 viewBox="0 0 43.311 43.311" style="enable-background:new 0 0 43.311 43.311;" xml:space="preserve">
<g>
	<path style="fill:#FFF;" d="M30.775,21.865c-0.892,1.482-0.414,3.406,1.068,4.298c0.505,0.304,1.062,0.449,1.612,0.449
		c1.062,0,2.098-0.541,2.686-1.517c0.278-0.462,0.993-1.291,1.684-2.093c2.926-3.394,9.015-10.457,2.774-16.61
		C38.39,4.214,34.58,4.68,27.834,6.71c-0.284-1.288-0.463-2.473-0.463-3.356c0.001-1.729-1.401-3.132-3.13-3.133
		c-0.001,0-0.001,0-0.001,0c-1.729,0-3.131,1.402-3.131,3.13c-0.001,1.485,0.282,3.341,0.734,5.275
		c-0.476,0.158-0.948,0.314-1.446,0.48c-1.639,0.546-3.624,1.208-5.639,1.841c-1.761-3.246-3.592-6.225-4.812-7.134
		c-1.387-1.034-3.349-0.746-4.382,0.64C4.56,5.801,4.802,7.691,6.088,8.744c0.413,0.446,1.299,1.84,2.481,3.954
		c-1.927,0.454-3.48,0.683-4.2,0.475c-1.573-0.676-3.403,0.036-4.099,1.606c-0.702,1.581,0.011,3.431,1.592,4.132
		c2.155,0.957,5.33,0.629,9.701-0.508c0.788,1.583,1.619,3.311,2.474,5.168c4.761,10.347,5.923,15.15,5.873,16.244
		c-0.079,1.727,1.257,3.192,2.984,3.271c0.049,0.003,0.098,0.004,0.146,0.004c1.663,0,3.048-1.309,3.126-2.988
		c0.182-3.97-3.552-12.931-6.717-19.749c-0.395-0.851-1.026-2.193-1.792-3.757c1.479-0.475,3.044-0.991,4.72-1.55
		c0.414-0.138,0.858-0.286,1.314-0.438c0.738,1.909,1.537,3.566,2.266,4.597c0.61,0.864,1.578,1.325,2.56,1.325
		c0.625,0,1.255-0.186,1.804-0.574c1.413-0.998,1.749-2.951,0.751-4.364c-0.423-0.599-0.92-1.644-1.41-2.892
		c2.931-0.878,5.632-1.563,6.858-1.495c1.165,1.51,0.289,3.38-3.439,7.705C32.141,20.004,31.329,20.946,30.775,21.865z"/>
</g>
<g>
</g>
<g>
</g>
<g>
</g>
<g>
</g>
<g>
</g>
<g>
</g>
<g>
</g>
<g>
</g>
<g>
</g>
<g>
</g>
<g>
</g>
<g>
</g>
<g>
</g>
<g>
</g>
<g>
</g>
</svg>
